<svg width="143" height="119" viewBox="0 0 143 119" fill="none" xmlns="http://www.w3.org/2000/svg">
<path d="M142.657 71.6945C142.657 111.088 113.182 118.427 73.7878 118.427C34.3941 118.427 0.00093758 111.094 0.00093758 71.6945C-0.0472453 62.2968 1.76214 52.9822 5.3251 44.286C8.88807 35.5898 14.1344 27.6834 20.7626 21.0212C27.3908 14.3589 35.2702 9.07213 43.948 5.46462C52.6258 1.85711 61.931 0 71.3287 0C80.7265 0 90.0317 1.85711 98.7095 5.46462C107.387 9.07213 115.267 14.3589 121.895 21.0212C128.523 27.6834 133.769 35.5898 137.332 44.286C140.895 52.9822 142.705 62.2968 142.657 71.6945" fill="#EBE9FF"/>
<path d="M117.129 84.2322C117.129 103.625 98.1151 107.238 72.7032 107.238C47.2914 107.238 25.1045 103.625 25.1045 84.2322C25.1045 64.8391 45.7051 49.1172 71.117 49.1172C96.5289 49.1172 117.129 64.8391 117.129 84.2322Z" fill="#5F52D8"/>
</svg>
